<svg xmlns="http://www.w3.org/2000/svg" width="1135" height="758" overflow="hidden"><defs><clipPath id="a"><path d="M1-1h1135v758H1z"/></clipPath></defs><g fill-rule="evenodd" clip-path="url(#a)" transform="translate(-1 1)"><path fill="#FFF" d="M1 0h1134v756H1Z"/><path d="m831.914 655.958-28.504-28.503 45.429-45.429 28.503 28.504ZM899.635 588.258l-28.504-28.504 45.428-45.429 28.504 28.504ZM871.177 695.142l-28.504-28.504 45.428-45.428 28.504 28.504ZM938.876 627.438l-28.504-28.504 45.427-45.427 28.504 28.504ZM792.723 616.765l-28.503-28.503 45.428-45.428 28.503 28.503ZM860.442 549.063l-28.504-28.504 45.427-45.427 28.504 28.504ZM339.133 629.971l-28.502 28.502-113.124-113.125 28.502-28.502ZM378.328 590.784l-28.503 28.502-45.427-45.427 28.502-28.503ZM310.633 523.074l-28.503 28.503-45.428-45.428 28.503-28.504ZM299.943 669.163l-28.505 28.505-45.428-45.428 28.505-28.505ZM232.245 601.465 203.74 629.97l-45.428-45.428 28.505-28.505ZM933.735 214.279l-28.504 28.503-45.427-45.427 28.503-28.503ZM866.037 146.578l-28.503 28.504-45.427-45.428 28.503-28.503ZM972.906 175.052l-28.503 28.503L831.278 90.431l28.503-28.503ZM894.54 253.47l-28.503 28.503-113.125-113.125 28.504-28.503ZM226.019 242.764l-28.504-28.504 113.123-113.124 28.504 28.504ZM265.198 281.961l-28.504-28.504 113.124-113.124 28.504 28.504ZM186.819 203.574l-28.504-28.504L271.44 61.946l28.504 28.504Z"/><path fill="#DA251D" d="M438 292.134c47.406-71.939 144.088-91.784 215.946-44.325 71.857 47.46 91.679 144.252 44.274 216.191"/><path fill="#29166F" d="M699 463.865c-47.571 71.939-144.592 91.785-216.701 44.326-72.108-47.459-92-144.252-44.429-216.191"/><path fill="#DA251D" d="M581 335c0 43.078-34.922 78-78 78s-78-34.922-78-78 34.922-78 78-78 78 34.922 78 78Z"/><path fill="#29166F" d="M711 421c0 43.078-34.922 78-78 78s-78-34.922-78-78 34.922-78 78-78 78 34.922 78 78Z"/></g></svg>